PathFileType	4	(X/Y/Z)	Kaydara	
DataRate	CameraRate	NumFrames	NumMarkers	Units	OrigDataRate	OrigDataStartFrame	OrigNumFrames	
120.00	120.00	4	72	mm	120.00	135	268	
Frame#	Time	Hips			RightUpLeg			RightLeg			RightFoot			RightFoot_End			LeftUpLeg			LeftLeg			LeftFoot			LeftFoot_End			Spine			Spine1			Spine2			Spine3			Neck			Head			Head_End			RightShoulder			RightArm			RightForeArm			RightHand			RightHandThumb1			RightHandThumb2			RightHandThumb3			RightHandThumb3_End			RightInHandIndex			RightHandIndex1			RightHandIndex2			RightHandIndex3			RightHandIndex3_End			RightInHandMiddle			RightHandMiddle1			RightHandMiddle2			RightHandMiddle3			RightHandMiddle3_End			RightInHandRing			RightHandRing1			RightHandRing2			RightHandRing3			RightHandRing3_End			RightInHandPinky			RightHandPinky1			RightHandPinky2			RightHandPinky3			RightHandPinky3_End			LeftShoulder			LeftArm			LeftForeArm			LeftHand			LeftHandThumb1			LeftHandThumb2			LeftHandThumb3			LeftHandThumb3_End			LeftInHandIndex			LeftHandIndex1			LeftHandIndex2			LeftHandIndex3			LeftHandIndex3_End			LeftInHandMiddle			LeftHandMiddle1			LeftHandMiddle2			LeftHandMiddle3			LeftHandMiddle3_End			LeftInHandRing			LeftHandRing1			LeftHandRing2			LeftHandRing3			LeftHandRing3_End			LeftInHandPinky			LeftHandPinky1			LeftHandPinky2			LeftHandPinky3			LeftHandPinky3_End			
		X1	Y1	Z1	X2	Y2	Z2	X3	Y3	Z3	X4	Y4	Z4	X5	Y5	Z5	X6	Y6	Z6	X7	Y7	Z7	X8	Y8	Z8	X9	Y9	Z9	X10	Y10	Z10	X11	Y11	Z11	X12	Y12	Z12	X13	Y13	Z13	X14	Y14	Z14	X15	Y15	Z15	X16	Y16	Z16	X17	Y17	Z17	X18	Y18	Z18	X19	Y19	Z19	X20	Y20	Z20	X21	Y21	Z21	X22	Y22	Z22	X23	Y23	Z23	X24	Y24	Z24	X25	Y25	Z25	X26	Y26	Z26	X27	Y27	Z27	X28	Y28	Z28	X29	Y29	Z29	X30	Y30	Z30	X31	Y31	Z31	X32	Y32	Z32	X33	Y33	Z33	X34	Y34	Z34	X35	Y35	Z35	X36	Y36	Z36	X37	Y37	Z37	X38	Y38	Z38	X39	Y39	Z39	X40	Y40	Z40	X41	Y41	Z41	X42	Y42	Z42	X43	Y43	Z43	X44	Y44	Z44	X45	Y45	Z45	X46	Y46	Z46	X47	Y47	Z47	X48	Y48	Z48	X49	Y49	Z49	X50	Y50	Z50	X51	Y51	Z51	X52	Y52	Z52	X53	Y53	Z53	X54	Y54	Z54	X55	Y55	Z55	X56	Y56	Z56	X57	Y57	Z57	X58	Y58	Z58	X59	Y59	Z59	X60	Y60	Z60	X61	Y61	Z61	X62	Y62	Z62	X63	Y63	Z63	X64	Y64	Z64	X65	Y65	Z65	X66	Y66	Z66	X67	Y67	Z67	X68	Y68	Z68	X69	Y69	Z69	X70	Y70	Z70	X71	Y71	Z71	X72	Y72	Z72	

135	1.117	3446.805	859.65103	-201.189	3506.7197719462997	848.4892574099887	-234.5506671397583	3401.1990146093885	450.1094545408769	-271.76850170747247	3466.908749065083	61.80217121822172	-371.76692128750045	3425.408302041697	-28.772673649275298	-225.93600078843207	3394.835339754294	842.4388867579962	-154.2738974274615	3271.314537828354	449.9632752992639	-80.23909533945952	3205.8056634468453	73.23254786698169	84.11561361169596	3255.725561227075	24.26169153948836	259.0311839456819	3408.391841751435	984.2683049635889	-258.44011881602006	3359.6271139310315	1055.2024851771982	-302.22028758472885	3303.090651888302	1124.3444356170435	-347.8547510137901	3241.135548936922	1182.9142541362946	-391.8479965225213	3174.015959318143	1245.5123083521682	-435.07730711241334	3131.8672204887484	1318.8152451116162	-394.44435658665293	3109.0694284660185	1407.9679674344682	-265.9866849821155	3208.6594087474327	1229.736480671821	-435.17401215098647	3262.508661141087	1232.965444555299	-487.5842329485208	3350.889668576155	1056.8604921842473	-474.64731406513937	3425.418315848622	1026.4382005328275	-552.5082141712991	3431.7085955511225	1045.4916164919682	-558.0037322200598	3431.166756726562	1056.69966691578	-572.069277011099	3431.6728211581344	1061.705759224824	-581.8684368518115	3432.850424756176	1063.4844815934814	-590.0409193339561	3436.5850920745183	1037.3523091952677	-557.7452331064362	3452.0221324553386	1043.013420778906	-569.127764282995	3456.7148213215305	1046.1681331713	-581.1978158718348	3454.39395246379	1049.5395138858019	-590.0926795237139	3448.9395765120953	1053.2811570061401	-598.3931806505096	3438.1629357836055	1029.5046051603877	-557.5568980199158	3454.07494057445	1030.78167838895	-568.556023858302	3459.34615806197	1033.1692657793808	-581.6702595928821	3456.6183561464395	1036.7305349205035	-592.3744388454218	3450.685389634226	1040.5784992978954	-601.4434923657797	3438.954030307253	1023.8065343025119	-557.0935350450497	3454.1067038557794	1019.977787452442	-566.4321672242843	3458.8291563900534	1020.9787593125546	-577.7878491254885	3456.26595639917	1023.8403173197247	-588.07319461318	3450.719680358585	1027.186577702913	-596.5815841504515	3438.864955930721	1017.1476820332449	-556.5435517989303	3452.9487898343737	1009.501772986741	-564.6398225376429	3456.8635075928373	1008.6350696439789	-573.5760103308511	3455.0583107477987	1009.9153184811356	-581.0022281192437	3450.182281460769	1012.4151321039345	-588.495565038883	3183.5093334052353	1222.1611395357036	-405.02440212107143	3147.9882383967447	1174.01287727122	-353.6630337858481	3231.7954143558586	1067.1369123449028	-469.98197672094227	3364.875353230756	1038.0063308479719	-447.04551276721605	3365.502173844896	1057.4865921344174	-451.05122647566486	3375.324317720136	1060.458829888815	-468.7850893200237	3382.1068498655864	1060.0963468762664	-482.9200637041151	3387.711869465274	1057.7133421303943	-496.230889811684	3364.4012891596512	1051.7290835984588	-457.1249423355827	3367.5860425676615	1058.5923943580387	-482.1518565018062	3374.8868416377836	1057.0947183970936	-503.26945734059404	3382.0164559771065	1054.1686850010306	-515.0338029599857	3389.665148731755	1050.4011601369175	-523.8507748705687	3364.3754329826043	1044.5763841449332	-461.28499830834886	3367.4663017024586	1047.4035453620986	-487.9446188467095	3375.425536267406	1044.7954044791868	-511.460478518697	3384.023614388724	1040.7979079591516	-525.880387058405	3392.3909516632493	1036.4483580717167	-535.6379411538396	3364.22452009392	1039.3970322517482	-463.5644973106122	3366.713259749346	1037.5785400243406	-489.3743616436267	3373.638698953205	1034.3048726093664	-510.3118820863897	3381.925935833239	1029.9176914907407	-524.4552319138123	3389.790361189597	1025.5762553026561	-533.7407672150919	3364.3630059616767	1032.8413695888253	-465.6315955194431	3366.559689314861	1027.2991214042702	-490.5164454740851	3372.0763505197056	1023.1245096682327	-507.85806283112373	3378.107081460746	1019.1731576304884	-518.452731673843	3385.0656165436985	1014.8949570357315	-526.8384595048271
136	1.125	3446.805	859.65103	-201.189	3506.303527116375	848.3513557204994	-234.5932849240691	3401.2339543732073	449.88007591882257	-271.4532176173278	3467.3659132264133	62.04755620643736	-372.1093099567508	3426.4143015917925	-28.704075298070904	-226.48249310946287	3395.223972292974	842.5658496700422	-154.2376129746725	3271.7599159441775	450.12248181935644	-79.9627122395614	3206.0999622753475	73.37556211160035	84.26902537663818	3256.2030938034814	24.311620937980077	259.0930502070213	3408.537738776926	984.324799073786	-258.4093854663927	3359.83757176007	1055.3507614012135	-302.1144543213868	3303.37667466224	1124.6143422574846	-347.66260960054916	3241.4920737073076	1183.3263944642633	-391.56426042862944	3174.446469656475	1246.0708360723818	-434.6902088597708	3132.3061428003216	1319.3900459156562	-394.1105498662836	3109.5489628866844	1408.6261496588156	-265.7282113620382	3208.9520858100295	1230.2094702604509	-434.7520809179881	3262.3962255053334	1233.3979827186672	-486.82294578126687	3350.883644803098	1057.8406306260233	-473.3314522874736	3425.0081504864206	1028.1774188697136	-550.9959599681034	3431.3210974654976	1047.3925557012014	-556.3817720709728	3430.8749914840423	1058.727022550243	-570.3925432985873	3431.4419645907433	1063.8143545661067	-580.1631320198866	3432.665418707207	1065.654984680491	-588.3199864287378	3436.169883644051	1039.2478453246713	-556.1433276689442	3451.6174653077587	1045.104743963872	-567.4425320861832	3456.366335491274	1048.3736343474147	-579.4770153830027	3454.1110800789115	1051.794230458512	-588.3607409167811	3448.731711302374	1055.5619262828777	-596.6594254138264	3437.734018339929	1031.3737856370967	-555.9849952947618	3453.6488742542733	1032.8275723158947	-566.9190692073583	3458.979614800936	1035.3356114533426	-579.9987501015255	3456.330119789462	1038.9542714212237	-590.6915343528293	3450.4788076575296	1042.8297771011487	-599.7595936020283	3438.5146257343367	1025.652316677413	-555.5447756723546	3453.6591972555048	1021.9622713978499	-564.8446635174663	3458.431710926599	1023.0637156134071	-576.1746842500918	3455.943076521185	1025.9782346270872	-586.4514046732113	3450.4731185407054	1029.349255448766	-594.9599785259954	3438.4173471372296	1018.9591024384936	-555.0253089340173	3452.486912845632	1011.420022270798	-563.1042229640406	3456.4389171003513	1010.6261266603482	-572.0269837487946	3454.686754473562	1011.9413064938601	-579.4503553433623	3449.8775507791806	1014.4609247199813	-586.9458391216656	3184.031780923179	1222.698825015727	-404.7524473800038	3148.8544707813985	1174.8125908004702	-353.7413297899684	3232.4092697679184	1068.3014825445123	-469.17236094690395	3364.6159601918935	1039.623765803643	-446.09887465351943	3365.342836929893	1059.2196433442828	-450.0628203260623	3375.214704082936	1062.230517555215	-467.66968494685887	3382.024677509735	1061.890657389016	-481.71202617116245	3387.6464249114447	1059.5228508585774	-494.9420430484366	3364.229774674326	1053.4658598188191	-456.1241486075852	3367.503089851483	1060.4590088030875	-481.0247337534785	3374.841983435699	1059.0064660877777	-502.0198696899849	3381.9813424822223	1056.0770821256458	-513.7023283979871	3389.628702766051	1052.2855967574453	-522.4476448654433	3364.180168517228	1046.2948450374836	-460.27556069816796	3367.344580408095	1049.2387543829789	-486.80729690550885	3375.3419310616746	1046.676967268123	-510.1887491163822	3383.9501129629434	1042.6740399150042	-524.5094925694824	3392.3151849805417	1038.2975987832547	-534.1884616680692	3364.010427186611	1041.09969855357	-462.55247562777805	3366.549342439943	1039.373461160076	-488.2463586054705	3373.5043608602095	1036.1370481206575	-509.06613429123917	3381.79940715921	1031.7429575161789	-523.1135187894628	3389.6607857638546	1027.3754448242444	-532.3250139108666	3364.1229939467007	1034.5184688770978	-464.61790344090116	3366.350451954021	1029.0466493992815	-489.39630653298207	3371.8848920786177	1024.8965543644138	-506.64321757632695	3377.918461770834	1020.9375909905611	-517.1676834265285	3384.8726542936533	1016.6348097596278	-525.4877086149447
137	1.133	3446.805	859.65103	-201.189	3505.887621851015	848.2129268647617	-234.63253127162363	3401.2652690672917	449.6553422516892	-271.20939913696424	3467.8066361889423	62.29626555332132	-372.51847457590594	3427.4155903374476	-28.656447003059686	-227.1024012873837	3395.611753873568	842.6940943028379	-154.20266176058698	3272.2055108195655	450.28210565974035	-79.68361776875257	3206.366473623125	73.555191893447	84.47043666316573	3256.6589685408007	24.366852201084	259.19631108335165	3408.685856723454	984.3780242758139	-258.3877643804153	3360.056075792535	1055.4928954040347	-302.028485446264	3303.677957758646	1124.8758827863146	-347.50180041031456	3241.871556718441	1183.7283574301957	-391.32349663021307	3174.9081585668764	1246.618011703169	-434.35848590207627	3132.7798428520778	1319.95895731224	-393.8383039909561	3110.080494681654	1409.2831272626877	-265.5302578197608	3209.2757837854842	1230.6658031132004	-434.3860508258124	3262.3140461447365	1233.8031081125941	-486.12603872293596	3350.91001722883	1058.8123767159216	-472.1131778600305	3424.6939963796617	1029.8318047526786	-549.5333500325509	3431.0420986950107	1049.2039248183573	-554.8235776664146	3430.6908596599505	1060.6545207815627	-568.7878557258822	3431.3163283091476	1065.8146360414744	-578.5354806108946	3432.5820742543538	1067.7090204675064	-586.6812450694497	3435.8587796020993	1041.0487668366425	-554.6067150603025	3451.3184562883407	1047.0816312764316	-565.8424558038888	3456.119531261084	1050.4508063902758	-577.8509194880183	3453.9259949995835	1053.9145161893384	-586.7256872942294	3448.6174480469786	1057.704924694643	-595.0218240460658	3437.403987563552	1033.1455236309464	-554.4770593603821	3453.320390512596	1034.755162438112	-565.3647390625654	3458.7056161391993	1037.368183389311	-578.4200400668481	3456.1293922161212	1041.036724396024	-589.103940988089	3450.3549926559112	1044.9360441430056	-598.170148635342	3438.170422397083	1027.3991540323882	-554.0585858900432	3453.3026408553114	1023.8277751294415	-563.3353719589439	3458.1201099093464	1025.0159269112887	-574.6483205988292	3455.7008056531963	1027.976013046929	-584.9186900301816	3450.302528476404	1031.368217417666	-593.4265724633942	3438.0603342179043	1020.6705101821827	-553.5670844039433	3452.1090256640628	1013.2191790601931	-561.6415783650552	3456.093133145041	1012.4867155172698	-570.5572840427698	3454.3896554146295	1013.8312617605368	-577.9792232336291	3449.6428645339147	1016.3674179162841	-585.475937024822	3184.5804488412336	1223.2321929118102	-404.5275377463616	3149.7479830618454	1175.6093688068224	-353.8668898489112	3233.0394219374366	1069.4766725671507	-468.4173527095432	3364.2644458632612	1041.3962898104337	-445.09661614296886	3365.091070907871	1061.1062192336378	-449.01877798276297	3375.014464755777	1064.153434279591	-466.4965424743086	3381.853675914116	1063.8344311369774	-480.44487460707285	3387.494111222735	1061.4802091760544	-493.5930118944811	3363.9677126893857	1055.3554068439353	-455.0682808974721	3367.3341196335136	1062.4742923048873	-479.84263544781214	3374.7144096396605	1061.0641004277536	-500.7140638845094	3381.864856440673	1058.1301280611933	-512.3130637283324	3389.511516421746	1054.3139913454704	-520.9848849462301	3363.8956750218285	1048.165770838466	-459.21122309308623	3367.1387630169993	1051.22226053068	-485.6152657267832	3375.177992498464	1048.7037641659392	-508.8609750810735	3383.797974196799	1044.6939002805289	-523.0806685528138	3392.1615104808625	1040.2898050500987	-532.6790436136114	3363.707924935889	1042.954714889585	-461.4856875761323	3366.3023348167785	1041.316890247372	-487.0639178604639	3373.29036723736	1038.1150398997581	-507.76480692507874	3381.5949418071714	1033.712576440304	-521.7144174281887	3389.4539991000497	1029.318264842429	-530.8499903459406	3363.795362383459	1036.347925382534	-463.54948770655125	3366.0589726632043	1030.9430053200401	-488.22181899525805	3371.6141608582875	1026.815255874748	-505.3731404319375	3377.651928690402	1022.8476058339891	-515.8260993675575	3384.602481717208	1018.5195995966077	-524.0787621828408
138	1.142	3446.805	859.65103	-201.189	3505.471289850794	848.0789252425715	-234.67170372347294	3401.310831063571	449.434447900019	-271.0498471047869	3468.248428308443	62.548181040495614	-373.0152739534761	3428.428534565415	-28.625170409072602	-227.81449531497856	3396.0014576605254	842.8190139785004	-154.16628169027447	3272.636646314178	450.4432496957773	-79.40098399412656	3206.6006331590747	73.75184800421202	84.69243101159172	3257.1008704896476	24.41831560036501	259.31201655375594	3408.8274703056163	984.4261591521612	-258.372714444351	3360.272965652437	1055.6264252811836	-301.95982068987604	3303.9846902306654	1125.1261716550018	-347.37019048825545	3242.265464331321	1184.1174769457516	-391.12490269553507	3175.393746690954	1247.1512981052683	-434.0828469156165	3133.2700809024846	1320.5155802738816	-393.62893727563625	3110.631710814408	1409.9253885342118	-265.3930297172804	3209.6232004911244	1231.1020688348854	-434.07677738972905	3262.259627175797	1234.169761232915	-485.4943740855516	3350.968668523331	1059.7622171530031	-470.9780636230492	3424.449231955593	1031.420683212174	-548.120347235573	3430.848158226925	1050.9446367393514	-553.3256022205599	3430.59177901722	1062.5032769614872	-567.2496275018294	3431.273559557044	1067.7292665861423	-576.9789316272457	3432.5779142661104	1069.6705536848183	-585.1177303463256	3435.6274733947726	1042.7737275580107	-553.133110393419	3451.102260188563	1048.9629342759572	-564.3237278870442	3455.951705868324	1052.4200840013718	-576.314933789137	3453.815789062899	1055.9225570540734	-585.1823305236533	3448.573511462103	1059.734304750928	-593.4746271609405	3437.1474421761304	1034.8385725854755	-553.0321119139187	3453.064921548687	1036.583448812408	-563.8912766282934	3458.4995986659387	1039.2877233373945	-576.9316917939998	3455.9912905011656	1043.0007549465595	-587.6085904024936	3450.288625133944	1046.9223165252124	-596.67151671306	3437.8952151894136	1029.0658504173969	-552.6349488829766	3453.0108978701023	1025.593324677759	-561.9044133454943	3457.8680657185864	1026.855951656489	-573.2084677851645	3455.512465331795	1029.856263034027	-583.474249227139	3450.180781765632	1033.2681045426402	-591.9800723607677	3437.7666892146826	1022.3008766579751	-552.1700149578983	3451.7873559856725	1014.9184727103612	-560.2538617512672	3455.7980205052227	1014.2373142862642	-569.1688395500564	3454.1384765298967	1015.6071697194591	-576.590525072682	3449.44921978489	1018.158401566384	-584.0871954527572	3185.1473095641136	1223.7596230948154	-404.349283660367	3150.654557945431	1176.4116072804422	-354.01138724471843	3233.645278729265	1070.6163299468806	-467.7051337166221	3363.8194911973696	1043.21910880654	-444.0672836875604	3364.7449782503527	1063.0418740493924	-447.9489624334782	3374.721739697941	1066.122905792146	-465.29585858232946	3381.592047409366	1065.8226863002847	-479.14892524052806	3387.2532145134583	1063.4800506823358	-492.2141143588062	3363.6132231403008	1057.29278830341	-453.9869995665724	3367.076793140182	1064.5324859545108	-478.6361402029945	3374.5017851984144	1063.1612263886109	-499.38280854659274	3381.6648493238577	1060.2211829094063	-510.8966712891344	3389.311718190356	1056.3796026558641	-519.4929172884265	3363.5202040300724	1050.0838451005343	-458.1212838873472	3366.8467236845336	1053.247739804869	-484.39852391354884	3374.9316187463464	1050.7687296504641	-507.50731120683514	3383.5653293987066	1046.7501051679337	-521.6239164169639	3391.9283678903735	1042.317470690667	-531.1394143285061	3363.3153658864144	1044.8565167594102	-460.3931563248246	3365.9703307351106	1043.3021430165181	-485.85646300120317	3372.994852350883	1040.1314708943594	-506.437406610076	3381.310909850189	1035.7188388939762	-520.2872574737459	3389.168665880268	1031.2968793694142	-529.34475474436	3363.3786185975778	1038.223916668907	-462.45499679162975	3365.6836056195775	1032.881178576841	-487.02178066325797	3371.262576372599	1028.772980034416	-504.0766100725266	3377.30608951323	1024.7952926645912	-514.4565884562228	3384.2539761285598	1020.4412862421716	-522.6399646298237
